<svg xmlns="http://www.w3.org/2000/svg" xmlns:xlink="http://www.w3.org/1999/xlink" width="107" zoomAndPan="magnify" viewBox="0 0 80.25 30.000001" height="40" preserveAspectRatio="xMidYMid meet" version="1.0"><defs><g/></defs><g fill="#f1f6e5" fill-opacity="1"><g transform="translate(3.199984, 22.460183)"><g><path d="M 3.109375 -1.90625 C 2.953125 -1.90625 2.796875 -1.90625 2.65625 -1.90625 L 2.609375 -5.734375 C 2.828125 -5.75 3.046875 -5.78125 3.265625 -5.796875 C 3.703125 -5.8125 4.125 -5.828125 4.515625 -5.828125 L 4.546875 -7.625 C 4.0625 -7.625 3.609375 -7.609375 3.15625 -7.59375 C 2.96875 -7.5625 2.78125 -7.546875 2.59375 -7.53125 L 2.5625 -11.28125 C 3.421875 -11.3125 4.28125 -11.3125 5.15625 -11.3125 L 5.15625 -13.09375 C 4.015625 -13.125 2.890625 -13.125 1.734375 -13.0625 L 0.75 -13.0625 L 0.875 -0.0625 L 2.671875 -0.09375 L 2.671875 -0.109375 C 2.796875 -0.109375 2.953125 -0.109375 3.078125 -0.109375 L 5.265625 -0.09375 L 5.265625 -1.890625 Z M 3.109375 -1.90625 "/></g></g></g><g fill="#f1f6e5" fill-opacity="1"><g transform="translate(9.237518, 22.460183)"><g><path d="M 8.46875 -4.265625 L 6.671875 -4.15625 C 6.671875 -3.984375 6.671875 -3.796875 6.65625 -3.625 C 6.609375 -3.453125 6.578125 -3.28125 6.515625 -3.125 C 6.453125 -2.953125 6.390625 -2.78125 6.296875 -2.65625 C 6.203125 -2.5 6.09375 -2.375 5.984375 -2.265625 C 5.890625 -2.15625 5.75 -2.0625 5.640625 -2 C 5.53125 -1.9375 5.40625 -1.90625 5.25 -1.890625 C 4.984375 -1.84375 4.6875 -1.90625 4.390625 -2.0625 C 4.265625 -2.125 4.109375 -2.21875 3.984375 -2.328125 C 3.84375 -2.453125 3.71875 -2.5625 3.609375 -2.703125 C 3.359375 -2.984375 3.171875 -3.328125 3.015625 -3.703125 C 2.859375 -4.078125 2.75 -4.46875 2.65625 -4.875 C 2.609375 -5.078125 2.59375 -5.28125 2.5625 -5.5 C 2.546875 -5.703125 2.546875 -5.921875 2.546875 -6.125 C 2.515625 -6.96875 2.65625 -7.828125 2.875 -8.671875 C 2.984375 -9.09375 3.140625 -9.515625 3.28125 -9.859375 C 3.375 -10.046875 3.46875 -10.203125 3.5625 -10.328125 C 3.65625 -10.484375 3.796875 -10.59375 3.90625 -10.703125 C 4.15625 -10.9375 4.453125 -11.0625 4.734375 -11.125 C 4.78125 -11.125 4.859375 -11.140625 4.9375 -11.140625 C 4.953125 -11.140625 4.984375 -11.125 5.03125 -11.125 L 5.046875 -11.125 C 5.0625 -11.125 5.0625 -11.125 5.0625 -11.125 C 5.078125 -11.125 5.078125 -11.125 5.078125 -11.125 C 5.15625 -11.09375 5.28125 -11.046875 5.421875 -10.953125 C 5.6875 -10.78125 5.9375 -10.5 6.125 -10.203125 C 6.21875 -10.046875 6.296875 -9.90625 6.359375 -9.75 C 6.40625 -9.609375 6.453125 -9.453125 6.453125 -9.328125 L 8.234375 -9.40625 C 8.21875 -9.734375 8.140625 -10.046875 8.046875 -10.359375 C 7.9375 -10.640625 7.8125 -10.90625 7.65625 -11.15625 C 7.5 -11.421875 7.328125 -11.640625 7.125 -11.859375 C 6.921875 -12.078125 6.6875 -12.28125 6.421875 -12.453125 C 6.140625 -12.609375 5.84375 -12.78125 5.46875 -12.875 L 5.328125 -12.890625 L 5.25 -12.90625 L 5.171875 -12.90625 C 5.109375 -12.90625 5.015625 -12.9375 4.9375 -12.9375 C 4.765625 -12.9375 4.59375 -12.90625 4.421875 -12.875 C 3.78125 -12.78125 3.203125 -12.46875 2.734375 -12.078125 C 2.484375 -11.859375 2.28125 -11.640625 2.109375 -11.375 C 1.9375 -11.140625 1.796875 -10.890625 1.6875 -10.640625 C 1.546875 -10.390625 1.453125 -10.125 1.390625 -9.890625 C 1.296875 -9.640625 1.21875 -9.40625 1.140625 -9.15625 C 0.875 -8.171875 0.734375 -7.15625 0.75 -6.109375 C 0.75 -5.84375 0.765625 -5.59375 0.78125 -5.328125 C 0.796875 -5.0625 0.84375 -4.796875 0.890625 -4.546875 C 0.984375 -4.015625 1.140625 -3.5 1.359375 -3.015625 C 1.5625 -2.5 1.84375 -2.015625 2.203125 -1.5625 C 2.390625 -1.34375 2.59375 -1.140625 2.84375 -0.9375 C 3.0625 -0.75 3.328125 -0.578125 3.609375 -0.453125 C 3.890625 -0.3125 4.1875 -0.203125 4.5 -0.125 C 4.828125 -0.078125 5.15625 -0.0625 5.5 -0.109375 C 5.8125 -0.15625 6.140625 -0.25 6.453125 -0.40625 C 6.765625 -0.5625 7.03125 -0.75 7.25 -0.96875 C 7.46875 -1.203125 7.65625 -1.4375 7.8125 -1.703125 C 7.984375 -1.96875 8.109375 -2.21875 8.203125 -2.5 C 8.3125 -2.78125 8.375 -3.078125 8.421875 -3.359375 C 8.46875 -3.65625 8.46875 -3.96875 8.46875 -4.265625 Z M 8.46875 -4.265625 "/></g></g></g><g fill="#f1f6e5" fill-opacity="1"><g transform="translate(18.471395, 22.460183)"><g><path d="M 9.40625 -9.03125 C 9.359375 -9.1875 9.3125 -9.34375 9.25 -9.515625 L 9.15625 -9.75 L 9.0625 -10 C 8.984375 -10.140625 8.90625 -10.3125 8.84375 -10.46875 C 8.75 -10.640625 8.65625 -10.78125 8.5625 -10.953125 C 8.359375 -11.25 8.09375 -11.546875 7.8125 -11.8125 C 7.515625 -12.078125 7.15625 -12.296875 6.78125 -12.46875 C 6.671875 -12.5 6.578125 -12.546875 6.484375 -12.578125 C 6.375 -12.59375 6.28125 -12.625 6.171875 -12.65625 C 5.984375 -12.6875 5.796875 -12.703125 5.625 -12.71875 C 5.25 -12.765625 4.875 -12.75 4.5 -12.6875 C 4.125 -12.65625 3.75 -12.5625 3.375 -12.390625 C 3.015625 -12.21875 2.640625 -11.984375 2.328125 -11.640625 L 3.65625 -10.453125 C 3.78125 -10.5625 3.921875 -10.65625 4.109375 -10.75 C 4.296875 -10.8125 4.5 -10.890625 4.75 -10.90625 C 4.984375 -10.953125 5.234375 -10.953125 5.46875 -10.9375 C 5.59375 -10.9375 5.703125 -10.90625 5.8125 -10.890625 C 5.875 -10.875 5.90625 -10.859375 5.96875 -10.859375 C 6 -10.84375 6.0625 -10.8125 6.09375 -10.796875 C 6.28125 -10.734375 6.453125 -10.609375 6.609375 -10.484375 C 6.765625 -10.328125 6.921875 -10.140625 7.0625 -9.9375 C 7.125 -9.84375 7.1875 -9.734375 7.25 -9.640625 C 7.3125 -9.53125 7.359375 -9.421875 7.40625 -9.28125 L 7.5 -9.09375 L 7.546875 -8.90625 C 7.609375 -8.78125 7.640625 -8.65625 7.6875 -8.515625 C 7.984375 -7.46875 8.03125 -6.359375 7.828125 -5.28125 C 7.734375 -4.765625 7.59375 -4.234375 7.359375 -3.75 C 7.140625 -3.265625 6.859375 -2.828125 6.515625 -2.484375 C 6.1875 -2.15625 5.8125 -1.921875 5.421875 -1.84375 C 5.03125 -1.78125 4.578125 -1.84375 4.1875 -2.03125 C 3.984375 -2.125 3.78125 -2.265625 3.609375 -2.40625 C 3.4375 -2.5625 3.265625 -2.734375 3.140625 -2.9375 C 2.859375 -3.328125 2.640625 -3.796875 2.5 -4.296875 C 2.21875 -5.328125 2.25 -6.453125 2.421875 -7.546875 C 2.515625 -8.109375 2.671875 -8.65625 2.859375 -9.140625 C 3.0625 -9.625 3.328125 -10.078125 3.65625 -10.453125 L 2.328125 -11.640625 C 1.828125 -11.09375 1.46875 -10.46875 1.21875 -9.828125 C 0.9375 -9.171875 0.78125 -8.5 0.671875 -7.875 C 0.5625 -7.21875 0.484375 -6.546875 0.5 -5.875 C 0.5 -5.1875 0.59375 -4.5 0.765625 -3.828125 C 0.953125 -3.15625 1.25 -2.484375 1.6875 -1.890625 C 1.890625 -1.59375 2.15625 -1.296875 2.421875 -1.046875 C 2.734375 -0.796875 3.046875 -0.578125 3.40625 -0.40625 C 3.75 -0.25 4.125 -0.125 4.546875 -0.078125 C 4.9375 0 5.34375 -0.015625 5.75 -0.09375 C 6.171875 -0.171875 6.546875 -0.3125 6.890625 -0.515625 C 7.234375 -0.703125 7.53125 -0.96875 7.796875 -1.234375 C 8.3125 -1.75 8.703125 -2.375 8.984375 -3.015625 C 9.265625 -3.640625 9.46875 -4.296875 9.609375 -4.96875 C 9.84375 -6.3125 9.796875 -7.703125 9.40625 -9.03125 Z M 9.40625 -9.03125 "/></g></g></g><g fill="#f1f6e5" fill-opacity="1"><g transform="translate(28.770719, 22.460183)"><g><path d="M 6.84375 -8.296875 C 7.03125 -8.828125 7.140625 -9.40625 7.09375 -10.015625 C 7.0625 -10.640625 6.859375 -11.265625 6.46875 -11.765625 C 6.28125 -12.03125 6.03125 -12.265625 5.78125 -12.453125 C 5.515625 -12.625 5.234375 -12.78125 4.921875 -12.890625 L 4.6875 -12.953125 C 4.609375 -12.96875 4.515625 -12.984375 4.421875 -13 C 4.265625 -13.03125 4.09375 -13.03125 3.921875 -13.03125 C 3.59375 -13.03125 3.265625 -12.953125 2.96875 -12.84375 C 2.375 -12.59375 1.875 -12.203125 1.46875 -11.703125 C 1.109375 -11.171875 0.890625 -10.59375 0.828125 -10.015625 C 0.734375 -9.421875 0.78125 -8.84375 0.921875 -8.296875 C 1.0625 -7.734375 1.3125 -7.234375 1.59375 -6.78125 C 1.875 -6.3125 2.1875 -5.921875 2.546875 -5.546875 C 2.890625 -5.1875 3.21875 -4.875 3.5 -4.5625 C 3.640625 -4.40625 3.75 -4.265625 3.875 -4.109375 C 3.984375 -3.96875 4.078125 -3.8125 4.125 -3.6875 C 4.203125 -3.53125 4.234375 -3.375 4.265625 -3.25 C 4.28125 -3.125 4.28125 -2.953125 4.265625 -2.828125 C 4.21875 -2.546875 4.109375 -2.3125 3.9375 -2.15625 C 3.75 -2 3.53125 -1.921875 3.3125 -1.921875 C 3.078125 -1.9375 2.84375 -2.0625 2.640625 -2.25 C 2.421875 -2.421875 2.25 -2.734375 2.109375 -3.0625 L 0.453125 -2.390625 C 0.65625 -1.890625 0.953125 -1.359375 1.421875 -0.9375 C 1.640625 -0.703125 1.921875 -0.515625 2.21875 -0.375 C 2.546875 -0.25 2.875 -0.15625 3.21875 -0.15625 C 3.921875 -0.09375 4.609375 -0.359375 5.140625 -0.828125 C 5.40625 -1.046875 5.609375 -1.328125 5.75 -1.625 C 5.90625 -1.921875 6 -2.265625 6.03125 -2.578125 C 6.09375 -2.890625 6.078125 -3.203125 6.03125 -3.515625 C 5.984375 -3.828125 5.890625 -4.125 5.78125 -4.40625 C 5.640625 -4.6875 5.5 -4.9375 5.328125 -5.15625 C 5.15625 -5.375 4.984375 -5.59375 4.828125 -5.78125 C 4.484375 -6.140625 4.15625 -6.484375 3.84375 -6.78125 C 3.5625 -7.078125 3.3125 -7.40625 3.109375 -7.71875 C 2.890625 -8.046875 2.75 -8.390625 2.65625 -8.75 C 2.578125 -9.078125 2.546875 -9.4375 2.59375 -9.78125 C 2.640625 -10.09375 2.75 -10.390625 2.9375 -10.640625 C 3.109375 -10.859375 3.34375 -11.046875 3.609375 -11.15625 C 3.734375 -11.21875 3.875 -11.234375 4 -11.234375 C 4.125 -11.234375 4.21875 -11.234375 4.375 -11.171875 C 4.484375 -11.140625 4.609375 -11.078125 4.734375 -10.984375 C 4.84375 -10.90625 4.953125 -10.8125 5.03125 -10.703125 C 5.1875 -10.484375 5.28125 -10.203125 5.328125 -9.90625 C 5.34375 -9.59375 5.265625 -9.25 5.15625 -8.890625 Z M 6.84375 -8.296875 "/></g></g></g><g fill="#f1f6e5" fill-opacity="1"><g transform="translate(36.714841, 22.460183)"><g><path d="M 3.109375 -1.90625 C 2.953125 -1.90625 2.796875 -1.90625 2.65625 -1.90625 L 2.609375 -5.734375 C 2.828125 -5.75 3.046875 -5.78125 3.265625 -5.796875 C 3.703125 -5.8125 4.125 -5.828125 4.515625 -5.828125 L 4.546875 -7.625 C 4.0625 -7.625 3.609375 -7.609375 3.15625 -7.59375 C 2.96875 -7.5625 2.78125 -7.546875 2.59375 -7.53125 L 2.5625 -11.28125 C 3.421875 -11.3125 4.28125 -11.3125 5.15625 -11.3125 L 5.15625 -13.09375 C 4.015625 -13.125 2.890625 -13.125 1.734375 -13.0625 L 0.75 -13.0625 L 0.875 -0.0625 L 2.671875 -0.09375 L 2.671875 -0.109375 C 2.796875 -0.109375 2.953125 -0.109375 3.078125 -0.109375 L 5.265625 -0.09375 L 5.265625 -1.890625 Z M 3.109375 -1.90625 "/></g></g></g><g fill="#f1f6e5" fill-opacity="1"><g transform="translate(42.752378, 22.460183)"><g><path d="M 8.59375 0.265625 L 6.09375 -13.46875 L 4.359375 -13.578125 L 0.46875 -1.0625 L 2.171875 -0.515625 L 3.140625 -3.65625 C 3.640625 -3.640625 4.15625 -3.640625 4.640625 -3.640625 C 5.125 -3.65625 5.609375 -3.65625 6.0625 -3.640625 L 6.828125 0.578125 Z M 4.59375 -5.4375 C 4.296875 -5.4375 4 -5.4375 3.703125 -5.4375 L 4.96875 -9.5625 L 5.71875 -5.453125 C 5.34375 -5.453125 4.96875 -5.453125 4.59375 -5.4375 Z M 4.59375 -5.4375 "/></g></g></g><g fill="#f1f6e5" fill-opacity="1"><g transform="translate(51.855409, 22.460183)"><g><path d="M 6.328125 -9.78125 L 6.296875 -9.984375 L 6.21875 -10.1875 C 6.1875 -10.3125 6.125 -10.453125 6.078125 -10.578125 C 6.03125 -10.65625 6 -10.734375 5.984375 -10.78125 C 5.9375 -10.859375 5.90625 -10.90625 5.875 -10.984375 L 5.6875 -11.265625 C 5.65625 -11.3125 5.640625 -11.328125 5.609375 -11.359375 L 5.46875 -11.546875 C 5.421875 -11.609375 5.359375 -11.65625 5.3125 -11.71875 C 5.1875 -11.84375 5.109375 -11.921875 4.984375 -12.015625 C 4.78125 -12.1875 4.546875 -12.375 4.265625 -12.515625 C 3.984375 -12.671875 3.65625 -12.78125 3.359375 -12.84375 C 3.046875 -12.90625 2.75 -12.90625 2.453125 -12.90625 L 0.828125 -12.953125 C 0.75 -10.84375 0.75 -8.75 0.75 -6.640625 C 0.734375 -4.546875 0.75 -2.421875 0.78125 -0.34375 L 2.578125 -0.359375 C 2.5625 -1.34375 2.5625 -2.328125 2.546875 -3.34375 C 2.703125 -3.328125 2.890625 -3.28125 3.0625 -3.171875 C 3.3125 -3.046875 3.546875 -2.828125 3.796875 -2.515625 C 4.234375 -1.921875 4.5625 -1.21875 4.671875 -0.484375 L 6.453125 -0.765625 C 6.28125 -1.8125 5.84375 -2.796875 5.1875 -3.625 C 4.984375 -3.890625 4.765625 -4.15625 4.46875 -4.390625 L 4.578125 -4.453125 C 4.6875 -4.515625 4.796875 -4.609375 4.921875 -4.703125 L 5.078125 -4.84375 L 5.15625 -4.921875 L 5.234375 -4.984375 C 5.4375 -5.1875 5.625 -5.421875 5.796875 -5.6875 C 5.890625 -5.8125 5.96875 -5.921875 6.03125 -6.078125 C 6.0625 -6.125 6.09375 -6.203125 6.125 -6.28125 L 6.21875 -6.484375 C 6.234375 -6.5625 6.265625 -6.640625 6.28125 -6.6875 C 6.296875 -6.765625 6.328125 -6.84375 6.328125 -6.890625 C 6.375 -7.046875 6.40625 -7.171875 6.421875 -7.328125 L 6.46875 -7.53125 C 6.46875 -7.59375 6.484375 -7.65625 6.484375 -7.734375 C 6.5 -7.875 6.5 -8 6.515625 -8.140625 C 6.546875 -8.6875 6.484375 -9.234375 6.328125 -9.78125 Z M 4.734375 -8.203125 C 4.703125 -8.09375 4.703125 -8 4.703125 -7.90625 L 4.6875 -7.78125 L 4.65625 -7.625 C 4.65625 -7.53125 4.609375 -7.4375 4.59375 -7.359375 C 4.59375 -7.3125 4.578125 -7.265625 4.5625 -7.234375 C 4.5625 -7.171875 4.546875 -7.140625 4.515625 -7.09375 L 4.484375 -6.984375 C 4.46875 -6.953125 4.453125 -6.921875 4.421875 -6.875 C 4.390625 -6.796875 4.359375 -6.75 4.3125 -6.671875 C 4.203125 -6.546875 4.109375 -6.390625 3.984375 -6.28125 L 3.890625 -6.1875 L 3.78125 -6.09375 C 3.703125 -6.03125 3.625 -5.984375 3.546875 -5.921875 L 3.4375 -5.84375 L 3.3125 -5.78125 C 3.234375 -5.71875 3.140625 -5.65625 3.046875 -5.625 C 2.875 -5.53125 2.703125 -5.453125 2.546875 -5.375 C 2.546875 -5.796875 2.546875 -6.21875 2.546875 -6.640625 C 2.546875 -8.125 2.546875 -9.625 2.578125 -11.125 C 2.734375 -11.125 2.875 -11.09375 3.015625 -11.078125 C 3.15625 -11.046875 3.28125 -11 3.421875 -10.9375 C 3.546875 -10.859375 3.6875 -10.765625 3.828125 -10.65625 C 3.90625 -10.578125 4 -10.5 4.03125 -10.46875 C 4.0625 -10.421875 4.078125 -10.40625 4.109375 -10.375 L 4.1875 -10.28125 C 4.375 -10.03125 4.5 -9.703125 4.59375 -9.34375 C 4.6875 -8.96875 4.734375 -8.578125 4.734375 -8.203125 Z M 4.734375 -8.203125 "/></g></g></g><g fill="#f1f6e5" fill-opacity="1"><g transform="translate(59.182691, 22.460183)"><g><path d="M 8.46875 -4.265625 L 6.671875 -4.15625 C 6.671875 -3.984375 6.671875 -3.796875 6.65625 -3.625 C 6.609375 -3.453125 6.578125 -3.28125 6.515625 -3.125 C 6.453125 -2.953125 6.390625 -2.78125 6.296875 -2.65625 C 6.203125 -2.5 6.09375 -2.375 5.984375 -2.265625 C 5.890625 -2.15625 5.75 -2.0625 5.640625 -2 C 5.53125 -1.9375 5.40625 -1.90625 5.25 -1.890625 C 4.984375 -1.84375 4.6875 -1.90625 4.390625 -2.0625 C 4.265625 -2.125 4.109375 -2.21875 3.984375 -2.328125 C 3.84375 -2.453125 3.71875 -2.5625 3.609375 -2.703125 C 3.359375 -2.984375 3.171875 -3.328125 3.015625 -3.703125 C 2.859375 -4.078125 2.75 -4.46875 2.65625 -4.875 C 2.609375 -5.078125 2.59375 -5.28125 2.5625 -5.5 C 2.546875 -5.703125 2.546875 -5.921875 2.546875 -6.125 C 2.515625 -6.96875 2.65625 -7.828125 2.875 -8.671875 C 2.984375 -9.09375 3.140625 -9.515625 3.28125 -9.859375 C 3.375 -10.046875 3.46875 -10.203125 3.5625 -10.328125 C 3.65625 -10.484375 3.796875 -10.59375 3.90625 -10.703125 C 4.15625 -10.9375 4.453125 -11.0625 4.734375 -11.125 C 4.78125 -11.125 4.859375 -11.140625 4.9375 -11.140625 C 4.953125 -11.140625 4.984375 -11.125 5.03125 -11.125 L 5.046875 -11.125 C 5.0625 -11.125 5.0625 -11.125 5.0625 -11.125 C 5.078125 -11.125 5.078125 -11.125 5.078125 -11.125 C 5.15625 -11.09375 5.28125 -11.046875 5.421875 -10.953125 C 5.6875 -10.78125 5.9375 -10.5 6.125 -10.203125 C 6.21875 -10.046875 6.296875 -9.90625 6.359375 -9.75 C 6.40625 -9.609375 6.453125 -9.453125 6.453125 -9.328125 L 8.234375 -9.40625 C 8.21875 -9.734375 8.140625 -10.046875 8.046875 -10.359375 C 7.9375 -10.640625 7.8125 -10.90625 7.65625 -11.15625 C 7.5 -11.421875 7.328125 -11.640625 7.125 -11.859375 C 6.921875 -12.078125 6.6875 -12.28125 6.421875 -12.453125 C 6.140625 -12.609375 5.84375 -12.78125 5.46875 -12.875 L 5.328125 -12.890625 L 5.25 -12.90625 L 5.171875 -12.90625 C 5.109375 -12.90625 5.015625 -12.9375 4.9375 -12.9375 C 4.765625 -12.9375 4.59375 -12.90625 4.421875 -12.875 C 3.78125 -12.78125 3.203125 -12.46875 2.734375 -12.078125 C 2.484375 -11.859375 2.28125 -11.640625 2.109375 -11.375 C 1.9375 -11.140625 1.796875 -10.890625 1.6875 -10.640625 C 1.546875 -10.390625 1.453125 -10.125 1.390625 -9.890625 C 1.296875 -9.640625 1.21875 -9.40625 1.140625 -9.15625 C 0.875 -8.171875 0.734375 -7.15625 0.75 -6.109375 C 0.75 -5.84375 0.765625 -5.59375 0.78125 -5.328125 C 0.796875 -5.0625 0.84375 -4.796875 0.890625 -4.546875 C 0.984375 -4.015625 1.140625 -3.5 1.359375 -3.015625 C 1.5625 -2.5 1.84375 -2.015625 2.203125 -1.5625 C 2.390625 -1.34375 2.59375 -1.140625 2.84375 -0.9375 C 3.0625 -0.75 3.328125 -0.578125 3.609375 -0.453125 C 3.890625 -0.3125 4.1875 -0.203125 4.5 -0.125 C 4.828125 -0.078125 5.15625 -0.0625 5.5 -0.109375 C 5.8125 -0.15625 6.140625 -0.25 6.453125 -0.40625 C 6.765625 -0.5625 7.03125 -0.75 7.25 -0.96875 C 7.46875 -1.203125 7.65625 -1.4375 7.8125 -1.703125 C 7.984375 -1.96875 8.109375 -2.21875 8.203125 -2.5 C 8.3125 -2.78125 8.375 -3.078125 8.421875 -3.359375 C 8.46875 -3.65625 8.46875 -3.96875 8.46875 -4.265625 Z M 8.46875 -4.265625 "/></g></g></g><g fill="#f1f6e5" fill-opacity="1"><g transform="translate(68.416565, 22.460183)"><g><path d="M 5.3125 -12.609375 L 5.234375 -7.828125 C 5.125 -7.8125 4.984375 -7.8125 4.875 -7.796875 C 4.515625 -7.75 4.1875 -7.703125 3.84375 -7.65625 C 3.4375 -7.59375 3.015625 -7.53125 2.59375 -7.453125 C 2.5625 -9.28125 2.546875 -11.140625 2.546875 -12.96875 L 0.75 -12.953125 C 0.75 -8.640625 0.859375 -4.296875 1.046875 0.03125 L 2.84375 -0.03125 C 2.75 -1.90625 2.6875 -3.78125 2.640625 -5.640625 C 3.140625 -5.734375 3.625 -5.8125 4.109375 -5.890625 C 4.453125 -5.921875 4.765625 -5.96875 5.078125 -6 C 5.125 -6.015625 5.15625 -6.015625 5.21875 -6.015625 L 5.140625 -1.5 L 6.9375 -1.453125 L 7.09375 -12.59375 Z M 5.3125 -12.609375 "/></g></g></g></svg>